<mxfile host="app.diagrams.net" modified="2023-10-08T01:35:15.825Z" agent="Mozilla/5.0 (Macintosh; Intel Mac OS X 10_15_7) AppleWebKit/537.36 (KHTML, like Gecko) Chrome/117.0.0.0 Safari/537.36" etag="_ni8r6_EA9_iQ1PkWgNf" version="22.0.4" type="device">
  <diagram name="Page-1" id="iNi-rTGCWxGTLk3gbCt8">
    <mxGraphModel dx="2284" dy="765" grid="1" gridSize="10" guides="1" tooltips="1" connect="1" arrows="1" fold="1" page="1" pageScale="1" pageWidth="850" pageHeight="1100" math="0" shadow="0">
      <root>
        <mxCell id="0" />
        <mxCell id="1" parent="0" />
        <mxCell id="1LfN1L5tY23p2y41fCVl-269" value="" style="rounded=0;whiteSpace=wrap;html=1;fillColor=#dae8fc;strokeColor=#6c8ebf;" parent="1" vertex="1">
          <mxGeometry x="40" y="2870" width="790" height="290" as="geometry" />
        </mxCell>
        <mxCell id="1LfN1L5tY23p2y41fCVl-247" value="" style="rounded=0;whiteSpace=wrap;html=1;fillColor=#e1d5e7;strokeColor=#9673a6;" parent="1" vertex="1">
          <mxGeometry x="40" y="2550" width="790" height="300" as="geometry" />
        </mxCell>
        <mxCell id="1LfN1L5tY23p2y41fCVl-219" value="" style="rounded=0;whiteSpace=wrap;html=1;fillColor=#f8cecc;strokeColor=#b85450;" parent="1" vertex="1">
          <mxGeometry x="40" y="1630" width="790" height="890" as="geometry" />
        </mxCell>
        <mxCell id="1LfN1L5tY23p2y41fCVl-223" value="" style="rounded=1;whiteSpace=wrap;html=1;fillColor=#d5e8d4;strokeColor=#82b366;" parent="1" vertex="1">
          <mxGeometry x="115" y="1940" width="665" height="120" as="geometry" />
        </mxCell>
        <mxCell id="1LfN1L5tY23p2y41fCVl-221" value="" style="rounded=1;whiteSpace=wrap;html=1;fillColor=#dae8fc;strokeColor=#6c8ebf;" parent="1" vertex="1">
          <mxGeometry x="110" y="1640" width="680" height="290" as="geometry" />
        </mxCell>
        <mxCell id="1LfN1L5tY23p2y41fCVl-197" value="" style="rounded=1;whiteSpace=wrap;html=1;fillColor=#f5f5f5;fontColor=#333333;strokeColor=#666666;" parent="1" vertex="1">
          <mxGeometry x="80" y="2070" width="720" height="310" as="geometry" />
        </mxCell>
        <mxCell id="1LfN1L5tY23p2y41fCVl-147" value="" style="rounded=0;whiteSpace=wrap;html=1;fillColor=#fff2cc;strokeColor=#d6b656;" parent="1" vertex="1">
          <mxGeometry x="40" y="1100" width="770" height="500" as="geometry" />
        </mxCell>
        <mxCell id="1LfN1L5tY23p2y41fCVl-116" value="" style="rounded=1;whiteSpace=wrap;html=1;fillColor=#f5f5f5;fontColor=#333333;strokeColor=#666666;" parent="1" vertex="1">
          <mxGeometry x="110" y="1150" width="670" height="310" as="geometry" />
        </mxCell>
        <mxCell id="1LfN1L5tY23p2y41fCVl-112" value="" style="rounded=0;whiteSpace=wrap;html=1;fillColor=#ffe6cc;strokeColor=#d79b00;" parent="1" vertex="1">
          <mxGeometry x="40" y="880" width="770" height="190" as="geometry" />
        </mxCell>
        <mxCell id="1LfN1L5tY23p2y41fCVl-74" value="" style="rounded=0;whiteSpace=wrap;html=1;fillColor=#d5e8d4;strokeColor=#82b366;" parent="1" vertex="1">
          <mxGeometry x="40" y="530" width="760" height="320" as="geometry" />
        </mxCell>
        <mxCell id="1LfN1L5tY23p2y41fCVl-71" value="" style="rounded=0;whiteSpace=wrap;html=1;fillColor=#dae8fc;strokeColor=#6c8ebf;" parent="1" vertex="1">
          <mxGeometry x="40" y="110" width="760" height="400" as="geometry" />
        </mxCell>
        <mxCell id="1LfN1L5tY23p2y41fCVl-38" value="" style="rounded=0;whiteSpace=wrap;html=1;" parent="1" vertex="1">
          <mxGeometry x="300" y="190" width="290" height="220" as="geometry" />
        </mxCell>
        <mxCell id="1LfN1L5tY23p2y41fCVl-2" value="Backend" style="rounded=1;whiteSpace=wrap;html=1;" parent="1" vertex="1">
          <mxGeometry x="290" y="20" width="120" height="60" as="geometry" />
        </mxCell>
        <mxCell id="1LfN1L5tY23p2y41fCVl-3" value="Client(Web brower)" style="rounded=1;whiteSpace=wrap;html=1;" parent="1" vertex="1">
          <mxGeometry x="70" y="20" width="120" height="60" as="geometry" />
        </mxCell>
        <mxCell id="1LfN1L5tY23p2y41fCVl-4" value="Player" style="shape=umlActor;verticalLabelPosition=bottom;verticalAlign=top;html=1;outlineConnect=0;" parent="1" vertex="1">
          <mxGeometry x="-40" y="20" width="30" height="60" as="geometry" />
        </mxCell>
        <mxCell id="1LfN1L5tY23p2y41fCVl-5" value="API Server" style="rounded=1;whiteSpace=wrap;html=1;" parent="1" vertex="1">
          <mxGeometry x="700" y="20" width="120" height="60" as="geometry" />
        </mxCell>
        <mxCell id="1LfN1L5tY23p2y41fCVl-6" value="FireBase" style="rounded=1;whiteSpace=wrap;html=1;" parent="1" vertex="1">
          <mxGeometry x="500" y="20" width="120" height="60" as="geometry" />
        </mxCell>
        <mxCell id="1LfN1L5tY23p2y41fCVl-9" value="Operator" style="shape=umlActor;verticalLabelPosition=bottom;verticalAlign=top;html=1;outlineConnect=0;" parent="1" vertex="1">
          <mxGeometry x="-180" y="50" width="30" height="60" as="geometry" />
        </mxCell>
        <mxCell id="1LfN1L5tY23p2y41fCVl-10" value="" style="endArrow=none;dashed=1;html=1;dashPattern=1 3;strokeWidth=2;rounded=0;" parent="1" target="1LfN1L5tY23p2y41fCVl-4" edge="1">
          <mxGeometry width="50" height="50" relative="1" as="geometry">
            <mxPoint x="-40" y="3351" as="sourcePoint" />
            <mxPoint x="-30" y="140" as="targetPoint" />
          </mxGeometry>
        </mxCell>
        <mxCell id="1LfN1L5tY23p2y41fCVl-11" value="" style="endArrow=none;dashed=1;html=1;dashPattern=1 3;strokeWidth=2;rounded=0;entryX=0.5;entryY=1;entryDx=0;entryDy=0;" parent="1" target="1LfN1L5tY23p2y41fCVl-3" edge="1">
          <mxGeometry width="50" height="50" relative="1" as="geometry">
            <mxPoint x="130" y="3272" as="sourcePoint" />
            <mxPoint x="129.5" y="110" as="targetPoint" />
          </mxGeometry>
        </mxCell>
        <mxCell id="1LfN1L5tY23p2y41fCVl-12" value="" style="endArrow=none;dashed=1;html=1;dashPattern=1 3;strokeWidth=2;rounded=0;entryX=0.5;entryY=1;entryDx=0;entryDy=0;" parent="1" target="1LfN1L5tY23p2y41fCVl-2" edge="1">
          <mxGeometry width="50" height="50" relative="1" as="geometry">
            <mxPoint x="370" y="3290" as="sourcePoint" />
            <mxPoint x="349.5" y="130" as="targetPoint" />
          </mxGeometry>
        </mxCell>
        <mxCell id="1LfN1L5tY23p2y41fCVl-13" value="" style="endArrow=none;dashed=1;html=1;dashPattern=1 3;strokeWidth=2;rounded=0;entryX=0.5;entryY=1;entryDx=0;entryDy=0;" parent="1" target="1LfN1L5tY23p2y41fCVl-6" edge="1">
          <mxGeometry width="50" height="50" relative="1" as="geometry">
            <mxPoint x="570" y="3270" as="sourcePoint" />
            <mxPoint x="559.5" y="110" as="targetPoint" />
          </mxGeometry>
        </mxCell>
        <mxCell id="1LfN1L5tY23p2y41fCVl-14" value="" style="endArrow=none;dashed=1;html=1;dashPattern=1 3;strokeWidth=2;rounded=0;entryX=0.5;entryY=1;entryDx=0;entryDy=0;" parent="1" target="1LfN1L5tY23p2y41fCVl-5" edge="1">
          <mxGeometry width="50" height="50" relative="1" as="geometry">
            <mxPoint x="770" y="3270" as="sourcePoint" />
            <mxPoint x="759.5" y="110" as="targetPoint" />
          </mxGeometry>
        </mxCell>
        <mxCell id="1LfN1L5tY23p2y41fCVl-15" value="" style="endArrow=none;dashed=1;html=1;dashPattern=1 3;strokeWidth=2;rounded=0;" parent="1" edge="1">
          <mxGeometry width="50" height="50" relative="1" as="geometry">
            <mxPoint x="-165.5" y="850" as="sourcePoint" />
            <mxPoint x="-165.5" y="130" as="targetPoint" />
          </mxGeometry>
        </mxCell>
        <mxCell id="1LfN1L5tY23p2y41fCVl-16" value="" style="endArrow=classic;html=1;rounded=0;" parent="1" edge="1">
          <mxGeometry width="50" height="50" relative="1" as="geometry">
            <mxPoint x="130" y="150" as="sourcePoint" />
            <mxPoint x="350" y="150" as="targetPoint" />
          </mxGeometry>
        </mxCell>
        <mxCell id="1LfN1L5tY23p2y41fCVl-17" value="Query game(player_name, table_name)" style="edgeLabel;html=1;align=center;verticalAlign=middle;resizable=0;points=[];" parent="1LfN1L5tY23p2y41fCVl-16" vertex="1" connectable="0">
          <mxGeometry x="-0.3909" y="4" relative="1" as="geometry">
            <mxPoint x="33" y="-6" as="offset" />
          </mxGeometry>
        </mxCell>
        <mxCell id="1LfN1L5tY23p2y41fCVl-18" value="" style="endArrow=classic;html=1;rounded=0;" parent="1" edge="1">
          <mxGeometry width="50" height="50" relative="1" as="geometry">
            <mxPoint x="350" y="180" as="sourcePoint" />
            <mxPoint x="560" y="180" as="targetPoint" />
          </mxGeometry>
        </mxCell>
        <mxCell id="1LfN1L5tY23p2y41fCVl-19" value="Query&amp;nbsp; current round data(table_name)" style="edgeLabel;html=1;align=center;verticalAlign=middle;resizable=0;points=[];" parent="1LfN1L5tY23p2y41fCVl-18" vertex="1" connectable="0">
          <mxGeometry x="-0.1429" y="2" relative="1" as="geometry">
            <mxPoint x="10" y="-18" as="offset" />
          </mxGeometry>
        </mxCell>
        <mxCell id="1LfN1L5tY23p2y41fCVl-20" value="" style="endArrow=classic;html=1;rounded=0;dashed=1;" parent="1" edge="1">
          <mxGeometry width="50" height="50" relative="1" as="geometry">
            <mxPoint x="560" y="210" as="sourcePoint" />
            <mxPoint x="350" y="210" as="targetPoint" />
          </mxGeometry>
        </mxCell>
        <mxCell id="1LfN1L5tY23p2y41fCVl-21" value="Return current round data of this table" style="edgeLabel;html=1;align=center;verticalAlign=middle;resizable=0;points=[];" parent="1LfN1L5tY23p2y41fCVl-20" vertex="1" connectable="0">
          <mxGeometry x="0.2667" y="-4" relative="1" as="geometry">
            <mxPoint x="23" y="-6" as="offset" />
          </mxGeometry>
        </mxCell>
        <mxCell id="1LfN1L5tY23p2y41fCVl-22" value="" style="endArrow=classic;html=1;rounded=0;" parent="1" edge="1">
          <mxGeometry width="50" height="50" relative="1" as="geometry">
            <mxPoint x="350" y="430" as="sourcePoint" />
            <mxPoint x="350" y="460" as="targetPoint" />
            <Array as="points">
              <mxPoint x="380" y="430" />
              <mxPoint x="380" y="460" />
            </Array>
          </mxGeometry>
        </mxCell>
        <mxCell id="1LfN1L5tY23p2y41fCVl-33" value="Find player info from current data" style="edgeLabel;html=1;align=center;verticalAlign=middle;resizable=0;points=[];" parent="1LfN1L5tY23p2y41fCVl-22" vertex="1" connectable="0">
          <mxGeometry x="-0.0667" y="1" relative="1" as="geometry">
            <mxPoint x="69" as="offset" />
          </mxGeometry>
        </mxCell>
        <mxCell id="1LfN1L5tY23p2y41fCVl-23" value="" style="endArrow=classic;html=1;rounded=0;dashed=1;" parent="1" edge="1">
          <mxGeometry width="50" height="50" relative="1" as="geometry">
            <mxPoint x="560" y="260" as="sourcePoint" />
            <mxPoint x="350" y="260" as="targetPoint" />
          </mxGeometry>
        </mxCell>
        <mxCell id="1LfN1L5tY23p2y41fCVl-24" value="Cannot find round data from this table" style="edgeLabel;html=1;align=center;verticalAlign=middle;resizable=0;points=[];" parent="1LfN1L5tY23p2y41fCVl-23" vertex="1" connectable="0">
          <mxGeometry x="0.2667" y="-4" relative="1" as="geometry">
            <mxPoint x="33" y="4" as="offset" />
          </mxGeometry>
        </mxCell>
        <mxCell id="1LfN1L5tY23p2y41fCVl-25" value="" style="endArrow=classic;html=1;rounded=0;" parent="1" edge="1">
          <mxGeometry width="50" height="50" relative="1" as="geometry">
            <mxPoint x="350" y="290" as="sourcePoint" />
            <mxPoint x="760" y="290" as="targetPoint" />
          </mxGeometry>
        </mxCell>
        <mxCell id="1LfN1L5tY23p2y41fCVl-26" value="Create a new deck(8 decks)" style="edgeLabel;html=1;align=center;verticalAlign=middle;resizable=0;points=[];" parent="1LfN1L5tY23p2y41fCVl-25" vertex="1" connectable="0">
          <mxGeometry x="-0.2585" y="-4" relative="1" as="geometry">
            <mxPoint x="-12" y="-14" as="offset" />
          </mxGeometry>
        </mxCell>
        <mxCell id="1LfN1L5tY23p2y41fCVl-27" value="" style="endArrow=classic;html=1;rounded=0;dashed=1;" parent="1" edge="1">
          <mxGeometry width="50" height="50" relative="1" as="geometry">
            <mxPoint x="760" y="320" as="sourcePoint" />
            <mxPoint x="350" y="320" as="targetPoint" />
          </mxGeometry>
        </mxCell>
        <mxCell id="1LfN1L5tY23p2y41fCVl-28" value="return deck information(deck_id)" style="edgeLabel;html=1;align=center;verticalAlign=middle;resizable=0;points=[];" parent="1LfN1L5tY23p2y41fCVl-27" vertex="1" connectable="0">
          <mxGeometry x="0.2667" y="-4" relative="1" as="geometry">
            <mxPoint x="-10" y="-6" as="offset" />
          </mxGeometry>
        </mxCell>
        <mxCell id="1LfN1L5tY23p2y41fCVl-29" value="" style="endArrow=classic;html=1;rounded=0;" parent="1" edge="1">
          <mxGeometry width="50" height="50" relative="1" as="geometry">
            <mxPoint x="350" y="360" as="sourcePoint" />
            <mxPoint x="560" y="360" as="targetPoint" />
          </mxGeometry>
        </mxCell>
        <mxCell id="1LfN1L5tY23p2y41fCVl-30" value="Creata new deck and round(deck_id, round_id)&amp;nbsp;" style="edgeLabel;html=1;align=center;verticalAlign=middle;resizable=0;points=[];" parent="1LfN1L5tY23p2y41fCVl-29" vertex="1" connectable="0">
          <mxGeometry x="-0.2667" y="4" relative="1" as="geometry">
            <mxPoint x="23" y="-16" as="offset" />
          </mxGeometry>
        </mxCell>
        <mxCell id="1LfN1L5tY23p2y41fCVl-31" value="" style="endArrow=classic;html=1;rounded=0;dashed=1;" parent="1" edge="1">
          <mxGeometry width="50" height="50" relative="1" as="geometry">
            <mxPoint x="560" y="390" as="sourcePoint" />
            <mxPoint x="350" y="390" as="targetPoint" />
          </mxGeometry>
        </mxCell>
        <mxCell id="1LfN1L5tY23p2y41fCVl-32" value="Return Success" style="edgeLabel;html=1;align=center;verticalAlign=middle;resizable=0;points=[];" parent="1LfN1L5tY23p2y41fCVl-31" vertex="1" connectable="0">
          <mxGeometry x="0.2667" y="-4" relative="1" as="geometry">
            <mxPoint x="23" y="-6" as="offset" />
          </mxGeometry>
        </mxCell>
        <mxCell id="1LfN1L5tY23p2y41fCVl-34" value="" style="endArrow=classic;html=1;rounded=0;dashed=1;" parent="1" edge="1">
          <mxGeometry width="50" height="50" relative="1" as="geometry">
            <mxPoint x="350" y="500" as="sourcePoint" />
            <mxPoint x="130" y="500" as="targetPoint" />
          </mxGeometry>
        </mxCell>
        <mxCell id="1LfN1L5tY23p2y41fCVl-35" value="Return player round data(cards, balance, countdown)&amp;nbsp;" style="edgeLabel;html=1;align=center;verticalAlign=middle;resizable=0;points=[];" parent="1LfN1L5tY23p2y41fCVl-34" vertex="1" connectable="0">
          <mxGeometry x="0.2667" y="-4" relative="1" as="geometry">
            <mxPoint x="29" y="-16" as="offset" />
          </mxGeometry>
        </mxCell>
        <mxCell id="1LfN1L5tY23p2y41fCVl-39" value="" style="endArrow=none;dashed=1;html=1;dashPattern=1 3;strokeWidth=2;rounded=0;" parent="1" edge="1">
          <mxGeometry width="50" height="50" relative="1" as="geometry">
            <mxPoint x="260" y="240" as="sourcePoint" />
            <mxPoint x="650" y="240" as="targetPoint" />
          </mxGeometry>
        </mxCell>
        <mxCell id="1LfN1L5tY23p2y41fCVl-40" value="Alt" style="text;html=1;strokeColor=none;fillColor=none;align=center;verticalAlign=middle;whiteSpace=wrap;rounded=0;" parent="1" vertex="1">
          <mxGeometry x="290" y="190" width="60" height="30" as="geometry" />
        </mxCell>
        <mxCell id="1LfN1L5tY23p2y41fCVl-41" value="" style="endArrow=classic;html=1;rounded=0;" parent="1" edge="1">
          <mxGeometry width="50" height="50" relative="1" as="geometry">
            <mxPoint x="130" y="590" as="sourcePoint" />
            <mxPoint x="350" y="590" as="targetPoint" />
          </mxGeometry>
        </mxCell>
        <mxCell id="1LfN1L5tY23p2y41fCVl-42" value="Bet to game(round_id,&amp;nbsp; bet options, bet amt)" style="edgeLabel;html=1;align=center;verticalAlign=middle;resizable=0;points=[];" parent="1LfN1L5tY23p2y41fCVl-41" vertex="1" connectable="0">
          <mxGeometry x="-0.3909" y="1" relative="1" as="geometry">
            <mxPoint x="33" y="-19" as="offset" />
          </mxGeometry>
        </mxCell>
        <mxCell id="1LfN1L5tY23p2y41fCVl-43" value="" style="endArrow=classic;html=1;rounded=0;" parent="1" edge="1">
          <mxGeometry width="50" height="50" relative="1" as="geometry">
            <mxPoint x="350" y="610" as="sourcePoint" />
            <mxPoint x="560" y="610" as="targetPoint" />
          </mxGeometry>
        </mxCell>
        <mxCell id="1LfN1L5tY23p2y41fCVl-44" value="Get current round data" style="edgeLabel;html=1;align=center;verticalAlign=middle;resizable=0;points=[];" parent="1LfN1L5tY23p2y41fCVl-43" vertex="1" connectable="0">
          <mxGeometry x="-0.1238" y="3" relative="1" as="geometry">
            <mxPoint x="8" y="-7" as="offset" />
          </mxGeometry>
        </mxCell>
        <mxCell id="1LfN1L5tY23p2y41fCVl-53" value="" style="endArrow=classic;html=1;rounded=0;dashed=1;" parent="1" edge="1">
          <mxGeometry width="50" height="50" relative="1" as="geometry">
            <mxPoint x="560" y="640" as="sourcePoint" />
            <mxPoint x="350" y="640" as="targetPoint" />
          </mxGeometry>
        </mxCell>
        <mxCell id="1LfN1L5tY23p2y41fCVl-54" value="Return round data" style="edgeLabel;html=1;align=center;verticalAlign=middle;resizable=0;points=[];" parent="1LfN1L5tY23p2y41fCVl-53" vertex="1" connectable="0">
          <mxGeometry x="0.2667" y="-4" relative="1" as="geometry">
            <mxPoint x="23" y="-6" as="offset" />
          </mxGeometry>
        </mxCell>
        <mxCell id="1LfN1L5tY23p2y41fCVl-58" value="" style="endArrow=classic;html=1;rounded=0;" parent="1" edge="1">
          <mxGeometry width="50" height="50" relative="1" as="geometry">
            <mxPoint x="350" y="660" as="sourcePoint" />
            <mxPoint x="350" y="690" as="targetPoint" />
            <Array as="points">
              <mxPoint x="380" y="660" />
              <mxPoint x="380" y="690" />
            </Array>
          </mxGeometry>
        </mxCell>
        <mxCell id="1LfN1L5tY23p2y41fCVl-59" value="Validate bet&amp;nbsp;" style="edgeLabel;html=1;align=center;verticalAlign=middle;resizable=0;points=[];" parent="1LfN1L5tY23p2y41fCVl-58" vertex="1" connectable="0">
          <mxGeometry x="-0.0667" y="1" relative="1" as="geometry">
            <mxPoint x="29" as="offset" />
          </mxGeometry>
        </mxCell>
        <mxCell id="1LfN1L5tY23p2y41fCVl-64" value="" style="endArrow=classic;html=1;rounded=0;" parent="1" edge="1">
          <mxGeometry width="50" height="50" relative="1" as="geometry">
            <mxPoint x="350" y="720" as="sourcePoint" />
            <mxPoint x="560" y="720" as="targetPoint" />
          </mxGeometry>
        </mxCell>
        <mxCell id="1LfN1L5tY23p2y41fCVl-65" value="Update player bet info and round state(bet_started))" style="edgeLabel;html=1;align=center;verticalAlign=middle;resizable=0;points=[];" parent="1LfN1L5tY23p2y41fCVl-64" vertex="1" connectable="0">
          <mxGeometry x="-0.1238" y="3" relative="1" as="geometry">
            <mxPoint x="8" y="-7" as="offset" />
          </mxGeometry>
        </mxCell>
        <mxCell id="1LfN1L5tY23p2y41fCVl-67" value="" style="endArrow=classic;html=1;rounded=0;dashed=1;" parent="1" edge="1">
          <mxGeometry width="50" height="50" relative="1" as="geometry">
            <mxPoint x="350" y="750" as="sourcePoint" />
            <mxPoint x="130" y="750" as="targetPoint" />
          </mxGeometry>
        </mxCell>
        <mxCell id="1LfN1L5tY23p2y41fCVl-68" value="Return bet_success(count down)" style="edgeLabel;html=1;align=center;verticalAlign=middle;resizable=0;points=[];" parent="1LfN1L5tY23p2y41fCVl-67" vertex="1" connectable="0">
          <mxGeometry x="0.2667" y="-4" relative="1" as="geometry">
            <mxPoint x="23" y="-6" as="offset" />
          </mxGeometry>
        </mxCell>
        <mxCell id="1LfN1L5tY23p2y41fCVl-69" value="" style="endArrow=classic;html=1;rounded=0;" parent="1" edge="1">
          <mxGeometry width="50" height="50" relative="1" as="geometry">
            <mxPoint x="350" y="800" as="sourcePoint" />
            <mxPoint x="350" y="830" as="targetPoint" />
            <Array as="points">
              <mxPoint x="380" y="800" />
              <mxPoint x="380" y="830" />
            </Array>
          </mxGeometry>
        </mxCell>
        <mxCell id="1LfN1L5tY23p2y41fCVl-70" value="Start to count down" style="edgeLabel;html=1;align=center;verticalAlign=middle;resizable=0;points=[];" parent="1LfN1L5tY23p2y41fCVl-69" vertex="1" connectable="0">
          <mxGeometry x="-0.0667" y="1" relative="1" as="geometry">
            <mxPoint x="49" y="-2" as="offset" />
          </mxGeometry>
        </mxCell>
        <mxCell id="1LfN1L5tY23p2y41fCVl-72" value="&lt;font style=&quot;font-size: 19px;&quot;&gt;Query Game Stage&lt;/font&gt;" style="text;html=1;strokeColor=none;fillColor=none;align=center;verticalAlign=middle;whiteSpace=wrap;rounded=0;flipH=1;flipV=0;fontStyle=1" parent="1" vertex="1">
          <mxGeometry x="50" y="170" width="60" height="270" as="geometry" />
        </mxCell>
        <mxCell id="1LfN1L5tY23p2y41fCVl-78" value="In the bet started stage, player can bet multible times" style="text;html=1;strokeColor=#b85450;fillColor=#f8cecc;align=center;verticalAlign=middle;whiteSpace=wrap;rounded=0;" parent="1" vertex="1">
          <mxGeometry x="120" y="530" width="320" height="30" as="geometry" />
        </mxCell>
        <mxCell id="1LfN1L5tY23p2y41fCVl-79" value="" style="endArrow=classic;html=1;rounded=0;dashed=1;" parent="1" edge="1">
          <mxGeometry width="50" height="50" relative="1" as="geometry">
            <mxPoint x="350" y="780" as="sourcePoint" />
            <mxPoint x="130" y="780" as="targetPoint" />
          </mxGeometry>
        </mxCell>
        <mxCell id="1LfN1L5tY23p2y41fCVl-80" value="Return bet_failed(not valid bet)" style="edgeLabel;html=1;align=center;verticalAlign=middle;resizable=0;points=[];" parent="1LfN1L5tY23p2y41fCVl-79" vertex="1" connectable="0">
          <mxGeometry x="0.2667" y="-4" relative="1" as="geometry">
            <mxPoint x="23" y="-6" as="offset" />
          </mxGeometry>
        </mxCell>
        <mxCell id="1LfN1L5tY23p2y41fCVl-81" value="Bet&lt;br style=&quot;font-size: 15px;&quot;&gt;&amp;nbsp;Start Stage" style="text;html=1;strokeColor=none;fillColor=none;align=center;verticalAlign=middle;whiteSpace=wrap;rounded=0;flipV=1;flipH=1;fontSize=15;fontStyle=1" parent="1" vertex="1">
          <mxGeometry x="50" y="610" width="60" height="130" as="geometry" />
        </mxCell>
        <mxCell id="1LfN1L5tY23p2y41fCVl-83" value="" style="endArrow=classic;html=1;rounded=0;" parent="1" edge="1">
          <mxGeometry width="50" height="50" relative="1" as="geometry">
            <mxPoint x="350" y="890" as="sourcePoint" />
            <mxPoint x="350" y="920" as="targetPoint" />
            <Array as="points">
              <mxPoint x="380" y="890" />
              <mxPoint x="380" y="920" />
            </Array>
          </mxGeometry>
        </mxCell>
        <mxCell id="1LfN1L5tY23p2y41fCVl-84" value="Count down end" style="edgeLabel;html=1;align=center;verticalAlign=middle;resizable=0;points=[];" parent="1LfN1L5tY23p2y41fCVl-83" vertex="1" connectable="0">
          <mxGeometry x="-0.0667" y="1" relative="1" as="geometry">
            <mxPoint x="39" y="-2" as="offset" />
          </mxGeometry>
        </mxCell>
        <mxCell id="1LfN1L5tY23p2y41fCVl-86" value="" style="endArrow=classic;html=1;rounded=0;" parent="1" edge="1">
          <mxGeometry width="50" height="50" relative="1" as="geometry">
            <mxPoint x="350" y="940" as="sourcePoint" />
            <mxPoint x="560" y="940" as="targetPoint" />
          </mxGeometry>
        </mxCell>
        <mxCell id="1LfN1L5tY23p2y41fCVl-87" value="Update round state (bet_ended)" style="edgeLabel;html=1;align=center;verticalAlign=middle;resizable=0;points=[];" parent="1LfN1L5tY23p2y41fCVl-86" vertex="1" connectable="0">
          <mxGeometry x="-0.2571" y="4" relative="1" as="geometry">
            <mxPoint x="17" y="-6" as="offset" />
          </mxGeometry>
        </mxCell>
        <mxCell id="1LfN1L5tY23p2y41fCVl-88" value="" style="endArrow=classic;html=1;rounded=0;" parent="1" edge="1">
          <mxGeometry width="50" height="50" relative="1" as="geometry">
            <mxPoint x="360" y="990" as="sourcePoint" />
            <mxPoint x="130" y="990" as="targetPoint" />
          </mxGeometry>
        </mxCell>
        <mxCell id="1LfN1L5tY23p2y41fCVl-96" value="Notify bet ended" style="edgeLabel;html=1;align=center;verticalAlign=middle;resizable=0;points=[];" parent="1LfN1L5tY23p2y41fCVl-88" vertex="1" connectable="0">
          <mxGeometry x="0.4348" y="-4" relative="1" as="geometry">
            <mxPoint x="25" y="-6" as="offset" />
          </mxGeometry>
        </mxCell>
        <mxCell id="1LfN1L5tY23p2y41fCVl-94" value="" style="endArrow=classic;html=1;rounded=0;dashed=1;" parent="1" edge="1">
          <mxGeometry width="50" height="50" relative="1" as="geometry">
            <mxPoint x="560" y="970" as="sourcePoint" />
            <mxPoint x="350" y="970" as="targetPoint" />
          </mxGeometry>
        </mxCell>
        <mxCell id="1LfN1L5tY23p2y41fCVl-95" value="Update success" style="edgeLabel;html=1;align=center;verticalAlign=middle;resizable=0;points=[];" parent="1LfN1L5tY23p2y41fCVl-94" vertex="1" connectable="0">
          <mxGeometry x="0.2667" y="-4" relative="1" as="geometry">
            <mxPoint x="23" y="-6" as="offset" />
          </mxGeometry>
        </mxCell>
        <mxCell id="1LfN1L5tY23p2y41fCVl-97" value="" style="endArrow=classic;html=1;rounded=0;" parent="1" edge="1">
          <mxGeometry width="50" height="50" relative="1" as="geometry">
            <mxPoint x="130" y="1010" as="sourcePoint" />
            <mxPoint x="130" y="1040" as="targetPoint" />
            <Array as="points">
              <mxPoint x="160" y="1010" />
              <mxPoint x="160" y="1040" />
            </Array>
          </mxGeometry>
        </mxCell>
        <mxCell id="1LfN1L5tY23p2y41fCVl-98" value="disable bet button" style="edgeLabel;html=1;align=center;verticalAlign=middle;resizable=0;points=[];" parent="1LfN1L5tY23p2y41fCVl-97" vertex="1" connectable="0">
          <mxGeometry x="-0.0667" y="1" relative="1" as="geometry">
            <mxPoint x="39" y="-2" as="offset" />
          </mxGeometry>
        </mxCell>
        <mxCell id="1LfN1L5tY23p2y41fCVl-99" value="" style="endArrow=classic;html=1;rounded=0;" parent="1" edge="1">
          <mxGeometry width="50" height="50" relative="1" as="geometry">
            <mxPoint x="360" y="1210" as="sourcePoint" />
            <mxPoint x="760" y="1210" as="targetPoint" />
          </mxGeometry>
        </mxCell>
        <mxCell id="1LfN1L5tY23p2y41fCVl-100" value="Deal ono card" style="edgeLabel;html=1;align=center;verticalAlign=middle;resizable=0;points=[];" parent="1LfN1L5tY23p2y41fCVl-99" vertex="1" connectable="0">
          <mxGeometry x="-0.27" y="3" relative="1" as="geometry">
            <mxPoint x="54" y="-7" as="offset" />
          </mxGeometry>
        </mxCell>
        <mxCell id="1LfN1L5tY23p2y41fCVl-101" value="1" style="endArrow=classic;html=1;rounded=0;dashed=1;" parent="1" edge="1">
          <mxGeometry width="50" height="50" relative="1" as="geometry">
            <mxPoint x="760" y="1240" as="sourcePoint" />
            <mxPoint x="360" y="1240" as="targetPoint" />
          </mxGeometry>
        </mxCell>
        <mxCell id="1LfN1L5tY23p2y41fCVl-102" value="Return one card" style="edgeLabel;html=1;align=center;verticalAlign=middle;resizable=0;points=[];" parent="1LfN1L5tY23p2y41fCVl-101" vertex="1" connectable="0">
          <mxGeometry x="0.2667" y="-4" relative="1" as="geometry">
            <mxPoint x="23" y="-6" as="offset" />
          </mxGeometry>
        </mxCell>
        <mxCell id="1LfN1L5tY23p2y41fCVl-103" value="" style="endArrow=classic;html=1;rounded=0;" parent="1" edge="1">
          <mxGeometry width="50" height="50" relative="1" as="geometry">
            <mxPoint x="360" y="1320" as="sourcePoint" />
            <mxPoint x="130" y="1320" as="targetPoint" />
          </mxGeometry>
        </mxCell>
        <mxCell id="1LfN1L5tY23p2y41fCVl-104" value="Notify card(owner, deal_started)" style="edgeLabel;html=1;align=center;verticalAlign=middle;resizable=0;points=[];" parent="1LfN1L5tY23p2y41fCVl-103" vertex="1" connectable="0">
          <mxGeometry x="0.2957" relative="1" as="geometry">
            <mxPoint y="-10" as="offset" />
          </mxGeometry>
        </mxCell>
        <mxCell id="1LfN1L5tY23p2y41fCVl-105" value="" style="endArrow=classic;html=1;rounded=0;dashed=1;" parent="1" edge="1">
          <mxGeometry width="50" height="50" relative="1" as="geometry">
            <mxPoint x="130" y="1060" as="sourcePoint" />
            <mxPoint x="360" y="1060" as="targetPoint" />
          </mxGeometry>
        </mxCell>
        <mxCell id="1LfN1L5tY23p2y41fCVl-106" value="return handle notify success" style="edgeLabel;html=1;align=center;verticalAlign=middle;resizable=0;points=[];" parent="1LfN1L5tY23p2y41fCVl-105" vertex="1" connectable="0">
          <mxGeometry x="-0.2696" y="2" relative="1" as="geometry">
            <mxPoint x="16" y="-8" as="offset" />
          </mxGeometry>
        </mxCell>
        <mxCell id="1LfN1L5tY23p2y41fCVl-107" value="" style="endArrow=classic;html=1;rounded=0;dashed=1;" parent="1" edge="1">
          <mxGeometry width="50" height="50" relative="1" as="geometry">
            <mxPoint x="130" y="1400" as="sourcePoint" />
            <mxPoint x="360" y="1400" as="targetPoint" />
          </mxGeometry>
        </mxCell>
        <mxCell id="1LfN1L5tY23p2y41fCVl-108" value="return handle notify success" style="edgeLabel;html=1;align=center;verticalAlign=middle;resizable=0;points=[];" parent="1LfN1L5tY23p2y41fCVl-107" vertex="1" connectable="0">
          <mxGeometry x="-0.2696" y="2" relative="1" as="geometry">
            <mxPoint x="16" y="-8" as="offset" />
          </mxGeometry>
        </mxCell>
        <mxCell id="1LfN1L5tY23p2y41fCVl-109" value="" style="endArrow=classic;html=1;rounded=0;" parent="1" edge="1">
          <mxGeometry width="50" height="50" relative="1" as="geometry">
            <mxPoint x="130" y="1340" as="sourcePoint" />
            <mxPoint x="130" y="1370" as="targetPoint" />
            <Array as="points">
              <mxPoint x="160" y="1340" />
              <mxPoint x="160" y="1370" />
            </Array>
          </mxGeometry>
        </mxCell>
        <mxCell id="1LfN1L5tY23p2y41fCVl-110" value="update card to player or banker" style="edgeLabel;html=1;align=center;verticalAlign=middle;resizable=0;points=[];" parent="1LfN1L5tY23p2y41fCVl-109" vertex="1" connectable="0">
          <mxGeometry x="-0.0667" y="1" relative="1" as="geometry">
            <mxPoint x="79" y="-2" as="offset" />
          </mxGeometry>
        </mxCell>
        <mxCell id="1LfN1L5tY23p2y41fCVl-114" value="Bet&lt;br style=&quot;font-size: 15px;&quot;&gt;&amp;nbsp;End Stage" style="text;html=1;strokeColor=none;fillColor=none;align=center;verticalAlign=middle;whiteSpace=wrap;rounded=0;flipV=1;flipH=1;fontSize=15;fontStyle=1" parent="1" vertex="1">
          <mxGeometry x="50" y="900" width="60" height="130" as="geometry" />
        </mxCell>
        <mxCell id="1LfN1L5tY23p2y41fCVl-117" value="Loop: deal cards until all players and banker get two cards" style="text;html=1;strokeColor=#b85450;fillColor=#f8cecc;align=center;verticalAlign=middle;whiteSpace=wrap;rounded=0;" parent="1" vertex="1">
          <mxGeometry x="140" y="1160" width="360" height="30" as="geometry" />
        </mxCell>
        <mxCell id="1LfN1L5tY23p2y41fCVl-124" value="" style="endArrow=classic;html=1;rounded=0;" parent="1" edge="1">
          <mxGeometry width="50" height="50" relative="1" as="geometry">
            <mxPoint x="360" y="1280" as="sourcePoint" />
            <mxPoint x="560" y="1280" as="targetPoint" />
          </mxGeometry>
        </mxCell>
        <mxCell id="1LfN1L5tY23p2y41fCVl-125" value="Update card and round state (deal_started)" style="edgeLabel;html=1;align=center;verticalAlign=middle;resizable=0;points=[];" parent="1LfN1L5tY23p2y41fCVl-124" vertex="1" connectable="0">
          <mxGeometry x="-0.2571" y="4" relative="1" as="geometry">
            <mxPoint x="26" y="-16" as="offset" />
          </mxGeometry>
        </mxCell>
        <mxCell id="1LfN1L5tY23p2y41fCVl-129" value="" style="endArrow=classic;html=1;rounded=0;dashed=1;" parent="1" edge="1">
          <mxGeometry width="50" height="50" relative="1" as="geometry">
            <mxPoint x="560" y="1304.5" as="sourcePoint" />
            <mxPoint x="350" y="1304.5" as="targetPoint" />
          </mxGeometry>
        </mxCell>
        <mxCell id="1LfN1L5tY23p2y41fCVl-130" value="Update success" style="edgeLabel;html=1;align=center;verticalAlign=middle;resizable=0;points=[];" parent="1LfN1L5tY23p2y41fCVl-129" vertex="1" connectable="0">
          <mxGeometry x="0.2667" y="-4" relative="1" as="geometry">
            <mxPoint x="23" y="-6" as="offset" />
          </mxGeometry>
        </mxCell>
        <mxCell id="1LfN1L5tY23p2y41fCVl-134" value="" style="endArrow=classic;html=1;rounded=0;" parent="1" edge="1">
          <mxGeometry width="50" height="50" relative="1" as="geometry">
            <mxPoint x="360" y="1540" as="sourcePoint" />
            <mxPoint x="130" y="1540" as="targetPoint" />
          </mxGeometry>
        </mxCell>
        <mxCell id="1LfN1L5tY23p2y41fCVl-141" value="Notify deal_ended" style="edgeLabel;html=1;align=center;verticalAlign=middle;resizable=0;points=[];" parent="1LfN1L5tY23p2y41fCVl-134" vertex="1" connectable="0">
          <mxGeometry x="0.1174" y="1" relative="1" as="geometry">
            <mxPoint x="1" y="-11" as="offset" />
          </mxGeometry>
        </mxCell>
        <mxCell id="1LfN1L5tY23p2y41fCVl-137" value="" style="endArrow=classic;html=1;rounded=0;" parent="1" edge="1">
          <mxGeometry width="50" height="50" relative="1" as="geometry">
            <mxPoint x="360" y="1490" as="sourcePoint" />
            <mxPoint x="560" y="1490" as="targetPoint" />
          </mxGeometry>
        </mxCell>
        <mxCell id="1LfN1L5tY23p2y41fCVl-138" value="Update last card and round state(deal_ended)" style="edgeLabel;html=1;align=center;verticalAlign=middle;resizable=0;points=[];" parent="1LfN1L5tY23p2y41fCVl-137" vertex="1" connectable="0">
          <mxGeometry x="-0.325" y="-2" relative="1" as="geometry">
            <mxPoint x="22" y="-22" as="offset" />
          </mxGeometry>
        </mxCell>
        <mxCell id="1LfN1L5tY23p2y41fCVl-139" value="" style="endArrow=classic;html=1;rounded=0;dashed=1;" parent="1" edge="1">
          <mxGeometry width="50" height="50" relative="1" as="geometry">
            <mxPoint x="570" y="1520" as="sourcePoint" />
            <mxPoint x="360" y="1520" as="targetPoint" />
          </mxGeometry>
        </mxCell>
        <mxCell id="1LfN1L5tY23p2y41fCVl-140" value="Update success" style="edgeLabel;html=1;align=center;verticalAlign=middle;resizable=0;points=[];" parent="1LfN1L5tY23p2y41fCVl-139" vertex="1" connectable="0">
          <mxGeometry x="0.2667" y="-4" relative="1" as="geometry">
            <mxPoint x="23" y="-6" as="offset" />
          </mxGeometry>
        </mxCell>
        <mxCell id="1LfN1L5tY23p2y41fCVl-142" value="" style="endArrow=classic;html=1;rounded=0;" parent="1" edge="1">
          <mxGeometry width="50" height="50" relative="1" as="geometry">
            <mxPoint x="130" y="1560" as="sourcePoint" />
            <mxPoint x="130" y="1590" as="targetPoint" />
            <Array as="points">
              <mxPoint x="160" y="1560" />
              <mxPoint x="160" y="1590" />
            </Array>
          </mxGeometry>
        </mxCell>
        <mxCell id="1LfN1L5tY23p2y41fCVl-143" value="update card and enable Hit/Pass button" style="edgeLabel;html=1;align=center;verticalAlign=middle;resizable=0;points=[];" parent="1LfN1L5tY23p2y41fCVl-142" vertex="1" connectable="0">
          <mxGeometry x="-0.0667" y="1" relative="1" as="geometry">
            <mxPoint x="89" y="-2" as="offset" />
          </mxGeometry>
        </mxCell>
        <mxCell id="1LfN1L5tY23p2y41fCVl-148" value="Deal&lt;br style=&quot;font-size: 15px;&quot;&gt;&amp;nbsp;Cards Stage" style="text;html=1;strokeColor=none;fillColor=none;align=center;verticalAlign=middle;whiteSpace=wrap;rounded=0;flipV=1;flipH=1;fontSize=15;fontStyle=1" parent="1" vertex="1">
          <mxGeometry x="40" y="1240" width="60" height="130" as="geometry" />
        </mxCell>
        <mxCell id="1LfN1L5tY23p2y41fCVl-149" value="" style="endArrow=classic;html=1;rounded=0;" parent="1" edge="1">
          <mxGeometry width="50" height="50" relative="1" as="geometry">
            <mxPoint x="130" y="1680" as="sourcePoint" />
            <mxPoint x="360" y="1680" as="targetPoint" />
          </mxGeometry>
        </mxCell>
        <mxCell id="1LfN1L5tY23p2y41fCVl-150" value="Hit" style="edgeLabel;html=1;align=center;verticalAlign=middle;resizable=0;points=[];" parent="1LfN1L5tY23p2y41fCVl-149" vertex="1" connectable="0">
          <mxGeometry x="-0.413" y="-1" relative="1" as="geometry">
            <mxPoint x="12" y="-21" as="offset" />
          </mxGeometry>
        </mxCell>
        <mxCell id="1LfN1L5tY23p2y41fCVl-151" value="" style="endArrow=classic;html=1;rounded=0;" parent="1" edge="1">
          <mxGeometry width="50" height="50" relative="1" as="geometry">
            <mxPoint x="360" y="1700" as="sourcePoint" />
            <mxPoint x="760" y="1700" as="targetPoint" />
          </mxGeometry>
        </mxCell>
        <mxCell id="1LfN1L5tY23p2y41fCVl-152" value="Draw one card" style="edgeLabel;html=1;align=center;verticalAlign=middle;resizable=0;points=[];" parent="1LfN1L5tY23p2y41fCVl-151" vertex="1" connectable="0">
          <mxGeometry x="-0.2025" y="3" relative="1" as="geometry">
            <mxPoint y="-7" as="offset" />
          </mxGeometry>
        </mxCell>
        <mxCell id="1LfN1L5tY23p2y41fCVl-153" value="" style="endArrow=classic;html=1;rounded=0;dashed=1;dashPattern=8 8;" parent="1" edge="1">
          <mxGeometry width="50" height="50" relative="1" as="geometry">
            <mxPoint x="760" y="1740" as="sourcePoint" />
            <mxPoint x="360" y="1740" as="targetPoint" />
          </mxGeometry>
        </mxCell>
        <mxCell id="1LfN1L5tY23p2y41fCVl-154" value="Return one card" style="edgeLabel;html=1;align=center;verticalAlign=middle;resizable=0;points=[];" parent="1LfN1L5tY23p2y41fCVl-153" vertex="1" connectable="0">
          <mxGeometry x="0.3375" y="1" relative="1" as="geometry">
            <mxPoint x="18" y="-11" as="offset" />
          </mxGeometry>
        </mxCell>
        <mxCell id="1LfN1L5tY23p2y41fCVl-155" value="" style="endArrow=classic;html=1;rounded=0;" parent="1" edge="1">
          <mxGeometry width="50" height="50" relative="1" as="geometry">
            <mxPoint x="360" y="1790" as="sourcePoint" />
            <mxPoint x="560" y="1790" as="targetPoint" />
          </mxGeometry>
        </mxCell>
        <mxCell id="1LfN1L5tY23p2y41fCVl-156" value="Update player card and operation" style="edgeLabel;html=1;align=center;verticalAlign=middle;resizable=0;points=[];" parent="1LfN1L5tY23p2y41fCVl-155" vertex="1" connectable="0">
          <mxGeometry x="-0.345" y="1" relative="1" as="geometry">
            <mxPoint x="24" y="-19" as="offset" />
          </mxGeometry>
        </mxCell>
        <mxCell id="1LfN1L5tY23p2y41fCVl-157" value="" style="endArrow=classic;html=1;rounded=0;dashed=1;" parent="1" edge="1">
          <mxGeometry width="50" height="50" relative="1" as="geometry">
            <mxPoint x="560" y="1830" as="sourcePoint" />
            <mxPoint x="360" y="1830" as="targetPoint" />
          </mxGeometry>
        </mxCell>
        <mxCell id="1LfN1L5tY23p2y41fCVl-158" value="Update success" style="edgeLabel;html=1;align=center;verticalAlign=middle;resizable=0;points=[];" parent="1LfN1L5tY23p2y41fCVl-157" vertex="1" connectable="0">
          <mxGeometry x="0.2667" y="-4" relative="1" as="geometry">
            <mxPoint x="23" y="-6" as="offset" />
          </mxGeometry>
        </mxCell>
        <mxCell id="1LfN1L5tY23p2y41fCVl-159" value="" style="endArrow=classic;html=1;rounded=0;dashed=1;" parent="1" edge="1">
          <mxGeometry width="50" height="50" relative="1" as="geometry">
            <mxPoint x="360" y="1860" as="sourcePoint" />
            <mxPoint x="130" y="1860" as="targetPoint" />
          </mxGeometry>
        </mxCell>
        <mxCell id="1LfN1L5tY23p2y41fCVl-160" value="Return Hit success" style="edgeLabel;html=1;align=center;verticalAlign=middle;resizable=0;points=[];" parent="1LfN1L5tY23p2y41fCVl-159" vertex="1" connectable="0">
          <mxGeometry x="0.3696" y="-1" relative="1" as="geometry">
            <mxPoint x="28" y="-9" as="offset" />
          </mxGeometry>
        </mxCell>
        <mxCell id="1LfN1L5tY23p2y41fCVl-161" value="" style="endArrow=classic;html=1;rounded=0;" parent="1" edge="1">
          <mxGeometry width="50" height="50" relative="1" as="geometry">
            <mxPoint x="130" y="1890" as="sourcePoint" />
            <mxPoint x="130" y="1920" as="targetPoint" />
            <Array as="points">
              <mxPoint x="160" y="1890" />
              <mxPoint x="160" y="1920" />
            </Array>
          </mxGeometry>
        </mxCell>
        <mxCell id="1LfN1L5tY23p2y41fCVl-162" value="update card and disable Hit/Pass button" style="edgeLabel;html=1;align=center;verticalAlign=middle;resizable=0;points=[];" parent="1LfN1L5tY23p2y41fCVl-161" vertex="1" connectable="0">
          <mxGeometry x="-0.0667" y="1" relative="1" as="geometry">
            <mxPoint x="89" y="-2" as="offset" />
          </mxGeometry>
        </mxCell>
        <mxCell id="1LfN1L5tY23p2y41fCVl-163" value="" style="endArrow=classic;html=1;rounded=0;fillColor=#dae8fc;strokeColor=#6c8ebf;" parent="1" edge="1">
          <mxGeometry width="50" height="50" relative="1" as="geometry">
            <mxPoint x="130" y="1960" as="sourcePoint" />
            <mxPoint x="360" y="1960" as="targetPoint" />
          </mxGeometry>
        </mxCell>
        <mxCell id="1LfN1L5tY23p2y41fCVl-164" value="Stand" style="edgeLabel;html=1;align=center;verticalAlign=middle;resizable=0;points=[];" parent="1LfN1L5tY23p2y41fCVl-163" vertex="1" connectable="0">
          <mxGeometry x="-0.413" y="-1" relative="1" as="geometry">
            <mxPoint x="12" y="-11" as="offset" />
          </mxGeometry>
        </mxCell>
        <mxCell id="1LfN1L5tY23p2y41fCVl-165" value="" style="endArrow=classic;html=1;rounded=0;" parent="1" edge="1">
          <mxGeometry width="50" height="50" relative="1" as="geometry">
            <mxPoint x="360" y="1980" as="sourcePoint" />
            <mxPoint x="570" y="1980" as="targetPoint" />
          </mxGeometry>
        </mxCell>
        <mxCell id="1LfN1L5tY23p2y41fCVl-166" value="Update player operation" style="edgeLabel;html=1;align=center;verticalAlign=middle;resizable=0;points=[];" parent="1LfN1L5tY23p2y41fCVl-165" vertex="1" connectable="0">
          <mxGeometry x="0.119" y="3" relative="1" as="geometry">
            <mxPoint x="-17" y="-7" as="offset" />
          </mxGeometry>
        </mxCell>
        <mxCell id="1LfN1L5tY23p2y41fCVl-167" value="" style="endArrow=classic;html=1;rounded=0;dashed=1;" parent="1" edge="1">
          <mxGeometry width="50" height="50" relative="1" as="geometry">
            <mxPoint x="560" y="2010" as="sourcePoint" />
            <mxPoint x="360" y="2010" as="targetPoint" />
          </mxGeometry>
        </mxCell>
        <mxCell id="1LfN1L5tY23p2y41fCVl-168" value="Update success" style="edgeLabel;html=1;align=center;verticalAlign=middle;resizable=0;points=[];" parent="1LfN1L5tY23p2y41fCVl-167" vertex="1" connectable="0">
          <mxGeometry x="0.2667" y="-4" relative="1" as="geometry">
            <mxPoint x="23" y="-6" as="offset" />
          </mxGeometry>
        </mxCell>
        <mxCell id="1LfN1L5tY23p2y41fCVl-178" value="" style="endArrow=classic;html=1;rounded=0;dashed=1;" parent="1" edge="1">
          <mxGeometry width="50" height="50" relative="1" as="geometry">
            <mxPoint x="360" y="2040" as="sourcePoint" />
            <mxPoint x="130" y="2040" as="targetPoint" />
          </mxGeometry>
        </mxCell>
        <mxCell id="1LfN1L5tY23p2y41fCVl-179" value="Return Pass success" style="edgeLabel;html=1;align=center;verticalAlign=middle;resizable=0;points=[];" parent="1LfN1L5tY23p2y41fCVl-178" vertex="1" connectable="0">
          <mxGeometry x="0.3696" y="-1" relative="1" as="geometry">
            <mxPoint x="28" y="-9" as="offset" />
          </mxGeometry>
        </mxCell>
        <mxCell id="1LfN1L5tY23p2y41fCVl-181" value="" style="endArrow=classic;html=1;rounded=0;" parent="1" edge="1">
          <mxGeometry width="50" height="50" relative="1" as="geometry">
            <mxPoint x="370" y="2080" as="sourcePoint" />
            <mxPoint x="370" y="2110" as="targetPoint" />
            <Array as="points">
              <mxPoint x="400" y="2080" />
              <mxPoint x="400" y="2110" />
            </Array>
          </mxGeometry>
        </mxCell>
        <mxCell id="1LfN1L5tY23p2y41fCVl-182" value="Check banker cards need to deal one more card" style="edgeLabel;html=1;align=center;verticalAlign=middle;resizable=0;points=[];" parent="1LfN1L5tY23p2y41fCVl-181" vertex="1" connectable="0">
          <mxGeometry x="-0.0667" y="1" relative="1" as="geometry">
            <mxPoint x="104" y="3" as="offset" />
          </mxGeometry>
        </mxCell>
        <mxCell id="1LfN1L5tY23p2y41fCVl-185" value="" style="endArrow=classic;html=1;rounded=0;" parent="1" edge="1">
          <mxGeometry width="50" height="50" relative="1" as="geometry">
            <mxPoint x="360" y="2130" as="sourcePoint" />
            <mxPoint x="770" y="2130" as="targetPoint" />
          </mxGeometry>
        </mxCell>
        <mxCell id="1LfN1L5tY23p2y41fCVl-186" value="Deal one card" style="edgeLabel;html=1;align=center;verticalAlign=middle;resizable=0;points=[];" parent="1LfN1L5tY23p2y41fCVl-185" vertex="1" connectable="0">
          <mxGeometry x="-0.339" y="2" relative="1" as="geometry">
            <mxPoint x="4" y="-8" as="offset" />
          </mxGeometry>
        </mxCell>
        <mxCell id="1LfN1L5tY23p2y41fCVl-187" value="" style="endArrow=classic;html=1;rounded=0;dashed=1;" parent="1" edge="1">
          <mxGeometry width="50" height="50" relative="1" as="geometry">
            <mxPoint x="760" y="2170" as="sourcePoint" />
            <mxPoint x="370" y="2170" as="targetPoint" />
          </mxGeometry>
        </mxCell>
        <mxCell id="1LfN1L5tY23p2y41fCVl-188" value="return one card" style="edgeLabel;html=1;align=center;verticalAlign=middle;resizable=0;points=[];" parent="1LfN1L5tY23p2y41fCVl-187" vertex="1" connectable="0">
          <mxGeometry x="0.2667" y="-4" relative="1" as="geometry">
            <mxPoint x="23" y="-6" as="offset" />
          </mxGeometry>
        </mxCell>
        <mxCell id="1LfN1L5tY23p2y41fCVl-189" value="" style="endArrow=classic;html=1;rounded=0;" parent="1" edge="1">
          <mxGeometry width="50" height="50" relative="1" as="geometry">
            <mxPoint x="370" y="2200" as="sourcePoint" />
            <mxPoint x="570" y="2200" as="targetPoint" />
          </mxGeometry>
        </mxCell>
        <mxCell id="1LfN1L5tY23p2y41fCVl-190" value="update banker card" style="edgeLabel;html=1;align=center;verticalAlign=middle;resizable=0;points=[];" parent="1LfN1L5tY23p2y41fCVl-189" vertex="1" connectable="0">
          <mxGeometry x="-0.495" y="4" relative="1" as="geometry">
            <mxPoint x="29" y="-6" as="offset" />
          </mxGeometry>
        </mxCell>
        <mxCell id="1LfN1L5tY23p2y41fCVl-191" value="" style="endArrow=classic;html=1;rounded=0;dashed=1;" parent="1" edge="1">
          <mxGeometry width="50" height="50" relative="1" as="geometry">
            <mxPoint x="560" y="2230" as="sourcePoint" />
            <mxPoint x="360" y="2230" as="targetPoint" />
          </mxGeometry>
        </mxCell>
        <mxCell id="1LfN1L5tY23p2y41fCVl-192" value="Update success" style="edgeLabel;html=1;align=center;verticalAlign=middle;resizable=0;points=[];" parent="1LfN1L5tY23p2y41fCVl-191" vertex="1" connectable="0">
          <mxGeometry x="0.2667" y="-4" relative="1" as="geometry">
            <mxPoint x="23" y="-6" as="offset" />
          </mxGeometry>
        </mxCell>
        <mxCell id="1LfN1L5tY23p2y41fCVl-193" value="" style="endArrow=classic;html=1;rounded=0;" parent="1" edge="1">
          <mxGeometry width="50" height="50" relative="1" as="geometry">
            <mxPoint x="360" y="2270" as="sourcePoint" />
            <mxPoint x="130" y="2270" as="targetPoint" />
          </mxGeometry>
        </mxCell>
        <mxCell id="1LfN1L5tY23p2y41fCVl-194" value="Notify banker card" style="edgeLabel;html=1;align=center;verticalAlign=middle;resizable=0;points=[];" parent="1LfN1L5tY23p2y41fCVl-193" vertex="1" connectable="0">
          <mxGeometry x="0.3696" y="-1" relative="1" as="geometry">
            <mxPoint x="28" y="-9" as="offset" />
          </mxGeometry>
        </mxCell>
        <mxCell id="1LfN1L5tY23p2y41fCVl-195" value="" style="endArrow=classic;html=1;rounded=0;dashed=1;" parent="1" edge="1">
          <mxGeometry width="50" height="50" relative="1" as="geometry">
            <mxPoint x="130" y="2300" as="sourcePoint" />
            <mxPoint x="360" y="2300" as="targetPoint" />
          </mxGeometry>
        </mxCell>
        <mxCell id="1LfN1L5tY23p2y41fCVl-196" value="return handle notify success" style="edgeLabel;html=1;align=center;verticalAlign=middle;resizable=0;points=[];" parent="1LfN1L5tY23p2y41fCVl-195" vertex="1" connectable="0">
          <mxGeometry x="-0.2696" y="2" relative="1" as="geometry">
            <mxPoint x="16" y="-8" as="offset" />
          </mxGeometry>
        </mxCell>
        <mxCell id="1LfN1L5tY23p2y41fCVl-198" value="Loop: Handle dealing bankder cards" style="text;html=1;strokeColor=#b85450;fillColor=#f8cecc;align=center;verticalAlign=middle;whiteSpace=wrap;rounded=0;" parent="1" vertex="1">
          <mxGeometry x="130" y="2080" width="220" height="30" as="geometry" />
        </mxCell>
        <mxCell id="1LfN1L5tY23p2y41fCVl-213" value="" style="endArrow=classic;html=1;rounded=0;" parent="1" edge="1">
          <mxGeometry width="50" height="50" relative="1" as="geometry">
            <mxPoint x="370" y="2390" as="sourcePoint" />
            <mxPoint x="370" y="2420" as="targetPoint" />
            <Array as="points">
              <mxPoint x="400" y="2390" />
              <mxPoint x="400" y="2420" />
            </Array>
          </mxGeometry>
        </mxCell>
        <mxCell id="1LfN1L5tY23p2y41fCVl-214" value="banker no need draw cards any more" style="edgeLabel;html=1;align=center;verticalAlign=middle;resizable=0;points=[];" parent="1LfN1L5tY23p2y41fCVl-213" vertex="1" connectable="0">
          <mxGeometry x="-0.0667" y="1" relative="1" as="geometry">
            <mxPoint x="89" y="-2" as="offset" />
          </mxGeometry>
        </mxCell>
        <mxCell id="1LfN1L5tY23p2y41fCVl-215" value="" style="endArrow=classic;html=1;rounded=0;" parent="1" edge="1">
          <mxGeometry width="50" height="50" relative="1" as="geometry">
            <mxPoint x="370" y="2440" as="sourcePoint" />
            <mxPoint x="130" y="2440" as="targetPoint" />
          </mxGeometry>
        </mxCell>
        <mxCell id="1LfN1L5tY23p2y41fCVl-216" value="Notify Interaction ended" style="edgeLabel;html=1;align=center;verticalAlign=middle;resizable=0;points=[];" parent="1LfN1L5tY23p2y41fCVl-215" vertex="1" connectable="0">
          <mxGeometry x="0.2792" y="-1" relative="1" as="geometry">
            <mxPoint x="1" as="offset" />
          </mxGeometry>
        </mxCell>
        <mxCell id="1LfN1L5tY23p2y41fCVl-217" value="" style="endArrow=classic;html=1;rounded=0;dashed=1;" parent="1" edge="1">
          <mxGeometry width="50" height="50" relative="1" as="geometry">
            <mxPoint x="130" y="2470" as="sourcePoint" />
            <mxPoint x="360" y="2470" as="targetPoint" />
          </mxGeometry>
        </mxCell>
        <mxCell id="1LfN1L5tY23p2y41fCVl-218" value="return handle notify success" style="edgeLabel;html=1;align=center;verticalAlign=middle;resizable=0;points=[];" parent="1LfN1L5tY23p2y41fCVl-217" vertex="1" connectable="0">
          <mxGeometry x="-0.2696" y="2" relative="1" as="geometry">
            <mxPoint x="16" y="-8" as="offset" />
          </mxGeometry>
        </mxCell>
        <mxCell id="1LfN1L5tY23p2y41fCVl-220" value="Interaction&amp;nbsp;&lt;br&gt;Stage" style="text;html=1;strokeColor=none;fillColor=none;align=center;verticalAlign=middle;whiteSpace=wrap;rounded=0;flipV=1;flipH=1;fontSize=15;fontStyle=1" parent="1" vertex="1">
          <mxGeometry x="50" y="1650" width="60" height="130" as="geometry" />
        </mxCell>
        <mxCell id="1LfN1L5tY23p2y41fCVl-222" value="Hit Card" style="text;html=1;strokeColor=none;fillColor=none;align=center;verticalAlign=middle;whiteSpace=wrap;rounded=0;fontSize=20;fontStyle=1" parent="1" vertex="1">
          <mxGeometry x="650" y="1770" width="95" height="30" as="geometry" />
        </mxCell>
        <mxCell id="1LfN1L5tY23p2y41fCVl-224" value="Pass&lt;br&gt;Card" style="text;html=1;strokeColor=none;fillColor=none;align=center;verticalAlign=middle;whiteSpace=wrap;rounded=0;fontSize=20;fontStyle=1" parent="1" vertex="1">
          <mxGeometry x="660" y="1950" width="95" height="30" as="geometry" />
        </mxCell>
        <mxCell id="1LfN1L5tY23p2y41fCVl-225" value="" style="endArrow=classic;html=1;rounded=0;" parent="1" edge="1">
          <mxGeometry width="50" height="50" relative="1" as="geometry">
            <mxPoint x="370" y="2560" as="sourcePoint" />
            <mxPoint x="370" y="2590" as="targetPoint" />
            <Array as="points">
              <mxPoint x="400" y="2560" />
              <mxPoint x="400" y="2590" />
            </Array>
          </mxGeometry>
        </mxCell>
        <mxCell id="1LfN1L5tY23p2y41fCVl-226" value="Calculate the result" style="edgeLabel;html=1;align=center;verticalAlign=middle;resizable=0;points=[];" parent="1LfN1L5tY23p2y41fCVl-225" vertex="1" connectable="0">
          <mxGeometry x="-0.0667" y="1" relative="1" as="geometry">
            <mxPoint x="59" y="-2" as="offset" />
          </mxGeometry>
        </mxCell>
        <mxCell id="1LfN1L5tY23p2y41fCVl-227" value="" style="endArrow=classic;html=1;rounded=0;" parent="1" edge="1">
          <mxGeometry width="50" height="50" relative="1" as="geometry">
            <mxPoint x="370" y="2650" as="sourcePoint" />
            <mxPoint x="570" y="2650" as="targetPoint" />
          </mxGeometry>
        </mxCell>
        <mxCell id="1LfN1L5tY23p2y41fCVl-228" value="Update win result(and calculate the player balance)" style="edgeLabel;html=1;align=center;verticalAlign=middle;resizable=0;points=[];" parent="1LfN1L5tY23p2y41fCVl-227" vertex="1" connectable="0">
          <mxGeometry x="-0.185" y="2" relative="1" as="geometry">
            <mxPoint x="-2" y="-18" as="offset" />
          </mxGeometry>
        </mxCell>
        <mxCell id="1LfN1L5tY23p2y41fCVl-229" value="" style="endArrow=classic;html=1;rounded=0;dashed=1;" parent="1" edge="1">
          <mxGeometry width="50" height="50" relative="1" as="geometry">
            <mxPoint x="570" y="2680" as="sourcePoint" />
            <mxPoint x="370" y="2680" as="targetPoint" />
          </mxGeometry>
        </mxCell>
        <mxCell id="1LfN1L5tY23p2y41fCVl-230" value="Update success" style="edgeLabel;html=1;align=center;verticalAlign=middle;resizable=0;points=[];" parent="1LfN1L5tY23p2y41fCVl-229" vertex="1" connectable="0">
          <mxGeometry x="0.2667" y="-4" relative="1" as="geometry">
            <mxPoint x="23" y="-6" as="offset" />
          </mxGeometry>
        </mxCell>
        <mxCell id="1LfN1L5tY23p2y41fCVl-231" value="" style="endArrow=classic;html=1;rounded=0;" parent="1" edge="1">
          <mxGeometry width="50" height="50" relative="1" as="geometry">
            <mxPoint x="370" y="2710" as="sourcePoint" />
            <mxPoint x="130" y="2710" as="targetPoint" />
          </mxGeometry>
        </mxCell>
        <mxCell id="1LfN1L5tY23p2y41fCVl-232" value="Notify Win Result(player balance)" style="edgeLabel;html=1;align=center;verticalAlign=middle;resizable=0;points=[];" parent="1LfN1L5tY23p2y41fCVl-231" vertex="1" connectable="0">
          <mxGeometry x="0.1708" y="2" relative="1" as="geometry">
            <mxPoint x="10" y="-12" as="offset" />
          </mxGeometry>
        </mxCell>
        <mxCell id="1LfN1L5tY23p2y41fCVl-240" value="" style="endArrow=classic;html=1;rounded=0;" parent="1" edge="1">
          <mxGeometry width="50" height="50" relative="1" as="geometry">
            <mxPoint x="130" y="2730" as="sourcePoint" />
            <mxPoint x="130" y="2760" as="targetPoint" />
            <Array as="points">
              <mxPoint x="160" y="2730" />
              <mxPoint x="160" y="2760" />
            </Array>
          </mxGeometry>
        </mxCell>
        <mxCell id="1LfN1L5tY23p2y41fCVl-241" value="handle show win result" style="edgeLabel;html=1;align=center;verticalAlign=middle;resizable=0;points=[];" parent="1LfN1L5tY23p2y41fCVl-240" vertex="1" connectable="0">
          <mxGeometry x="-0.0667" y="1" relative="1" as="geometry">
            <mxPoint x="59" y="-2" as="offset" />
          </mxGeometry>
        </mxCell>
        <mxCell id="1LfN1L5tY23p2y41fCVl-242" value="" style="endArrow=classic;html=1;rounded=0;dashed=1;" parent="1" edge="1">
          <mxGeometry width="50" height="50" relative="1" as="geometry">
            <mxPoint x="130" y="2790" as="sourcePoint" />
            <mxPoint x="360" y="2790" as="targetPoint" />
          </mxGeometry>
        </mxCell>
        <mxCell id="1LfN1L5tY23p2y41fCVl-243" value="return handle notify success" style="edgeLabel;html=1;align=center;verticalAlign=middle;resizable=0;points=[];" parent="1LfN1L5tY23p2y41fCVl-242" vertex="1" connectable="0">
          <mxGeometry x="-0.2696" y="2" relative="1" as="geometry">
            <mxPoint x="16" y="-8" as="offset" />
          </mxGeometry>
        </mxCell>
        <mxCell id="1LfN1L5tY23p2y41fCVl-248" value="Take&lt;br&gt;WIn&amp;nbsp;&lt;br&gt;Stage" style="text;html=1;strokeColor=none;fillColor=none;align=center;verticalAlign=middle;whiteSpace=wrap;rounded=0;flipV=1;flipH=1;fontSize=15;fontStyle=1" parent="1" vertex="1">
          <mxGeometry x="55" y="2600" width="60" height="130" as="geometry" />
        </mxCell>
        <mxCell id="1LfN1L5tY23p2y41fCVl-251" value="" style="endArrow=classic;html=1;rounded=0;" parent="1" edge="1">
          <mxGeometry width="50" height="50" relative="1" as="geometry">
            <mxPoint x="370" y="2880" as="sourcePoint" />
            <mxPoint x="370" y="2910" as="targetPoint" />
            <Array as="points">
              <mxPoint x="400" y="2880" />
              <mxPoint x="400" y="2910" />
            </Array>
          </mxGeometry>
        </mxCell>
        <mxCell id="1LfN1L5tY23p2y41fCVl-252" value="Clean last round data" style="edgeLabel;html=1;align=center;verticalAlign=middle;resizable=0;points=[];" parent="1LfN1L5tY23p2y41fCVl-251" vertex="1" connectable="0">
          <mxGeometry x="-0.0667" y="1" relative="1" as="geometry">
            <mxPoint x="59" y="-2" as="offset" />
          </mxGeometry>
        </mxCell>
        <mxCell id="1LfN1L5tY23p2y41fCVl-253" value="" style="endArrow=classic;html=1;rounded=0;" parent="1" edge="1">
          <mxGeometry width="50" height="50" relative="1" as="geometry">
            <mxPoint x="370" y="2950" as="sourcePoint" />
            <mxPoint x="570" y="2950" as="targetPoint" />
          </mxGeometry>
        </mxCell>
        <mxCell id="1LfN1L5tY23p2y41fCVl-254" value="Create new round" style="edgeLabel;html=1;align=center;verticalAlign=middle;resizable=0;points=[];" parent="1LfN1L5tY23p2y41fCVl-253" vertex="1" connectable="0">
          <mxGeometry x="-0.055" y="1" relative="1" as="geometry">
            <mxPoint y="1" as="offset" />
          </mxGeometry>
        </mxCell>
        <mxCell id="1LfN1L5tY23p2y41fCVl-255" value="" style="endArrow=classic;html=1;rounded=0;" parent="1" edge="1">
          <mxGeometry width="50" height="50" relative="1" as="geometry">
            <mxPoint x="370" y="3000" as="sourcePoint" />
            <mxPoint x="130" y="3000" as="targetPoint" />
          </mxGeometry>
        </mxCell>
        <mxCell id="1LfN1L5tY23p2y41fCVl-256" value="Notify game start" style="edgeLabel;html=1;align=center;verticalAlign=middle;resizable=0;points=[];" parent="1LfN1L5tY23p2y41fCVl-255" vertex="1" connectable="0">
          <mxGeometry x="0.1292" y="-3" relative="1" as="geometry">
            <mxPoint x="1" y="-17" as="offset" />
          </mxGeometry>
        </mxCell>
        <mxCell id="1LfN1L5tY23p2y41fCVl-257" value="" style="endArrow=classic;html=1;rounded=0;" parent="1" edge="1">
          <mxGeometry width="50" height="50" relative="1" as="geometry">
            <mxPoint x="130" y="3020" as="sourcePoint" />
            <mxPoint x="130" y="3050" as="targetPoint" />
            <Array as="points">
              <mxPoint x="160" y="3020" />
              <mxPoint x="160" y="3050" />
            </Array>
          </mxGeometry>
        </mxCell>
        <mxCell id="1LfN1L5tY23p2y41fCVl-258" value="Reset table status" style="edgeLabel;html=1;align=center;verticalAlign=middle;resizable=0;points=[];" parent="1LfN1L5tY23p2y41fCVl-257" vertex="1" connectable="0">
          <mxGeometry x="-0.0667" y="1" relative="1" as="geometry">
            <mxPoint x="39" y="8" as="offset" />
          </mxGeometry>
        </mxCell>
        <mxCell id="1LfN1L5tY23p2y41fCVl-259" value="" style="endArrow=classic;html=1;rounded=0;dashed=1;" parent="1" edge="1">
          <mxGeometry width="50" height="50" relative="1" as="geometry">
            <mxPoint x="570" y="2980" as="sourcePoint" />
            <mxPoint x="370" y="2980" as="targetPoint" />
          </mxGeometry>
        </mxCell>
        <mxCell id="1LfN1L5tY23p2y41fCVl-260" value="Update success" style="edgeLabel;html=1;align=center;verticalAlign=middle;resizable=0;points=[];" parent="1LfN1L5tY23p2y41fCVl-259" vertex="1" connectable="0">
          <mxGeometry x="0.2667" y="-4" relative="1" as="geometry">
            <mxPoint x="23" y="-6" as="offset" />
          </mxGeometry>
        </mxCell>
        <mxCell id="1LfN1L5tY23p2y41fCVl-264" value="" style="endArrow=classic;html=1;rounded=0;dashed=1;" parent="1" edge="1">
          <mxGeometry width="50" height="50" relative="1" as="geometry">
            <mxPoint x="120" y="3080" as="sourcePoint" />
            <mxPoint x="370" y="3080" as="targetPoint" />
          </mxGeometry>
        </mxCell>
        <mxCell id="1LfN1L5tY23p2y41fCVl-265" value="return handle notify success" style="edgeLabel;html=1;align=center;verticalAlign=middle;resizable=0;points=[];" parent="1LfN1L5tY23p2y41fCVl-264" vertex="1" connectable="0">
          <mxGeometry x="-0.2696" y="2" relative="1" as="geometry">
            <mxPoint x="16" y="-8" as="offset" />
          </mxGeometry>
        </mxCell>
        <mxCell id="1LfN1L5tY23p2y41fCVl-270" value="Next Round&lt;br style=&quot;font-size: 19px;&quot;&gt;" style="text;html=1;strokeColor=none;fillColor=none;align=center;verticalAlign=middle;whiteSpace=wrap;rounded=0;fontStyle=1;fontSize=19;" parent="1" vertex="1">
          <mxGeometry x="55" y="2930" width="60" height="30" as="geometry" />
        </mxCell>
      </root>
    </mxGraphModel>
  </diagram>
</mxfile>
